<?xml version="1.0" encoding="iso-8859-1"?>
<!-- Generator: Adobe Illustrator 19.0.0, SVG Export Plug-In . SVG Version: 6.00 Build 0)  -->
<svg version="1.1" id="Capa_1" xmlns="http://www.w3.org/2000/svg" xmlns:xlink="http://www.w3.org/1999/xlink" x="0px" y="0px"
	 viewBox="0 0 480 480" style="enable-background:new 0 0 480 480;" xml:space="preserve">
<g>
	<g>
		<g>
			<path d="M472,200h-30.4c-2.013-6.066-4.476-11.973-7.368-17.672l21.512-21.528c3.118-3.123,3.118-8.181,0-11.304l-45.2-45.2
				c-3.123-3.118-8.181-3.118-11.304,0l-21.56,21.496c-5.7-2.902-11.61-5.373-17.68-7.392V88c0-4.418-3.582-8-8-8h-40V40
				c-0.026-22.08-17.92-39.974-40-40H40C17.92,0.026,0.026,17.92,0,40v400c0.026,22.08,17.92,39.974,40,40h232
				c22.08-0.026,39.974-17.92,40-40v-40h40c4.418,0,8-3.582,8-8v-30.4c6.066-2.011,11.974-4.474,17.672-7.368l21.6,21.496
				c3.123,3.118,8.181,3.118,11.304,0l45.2-45.2c3.118-3.123,3.118-8.181,0-11.304l-21.496-21.56
				c2.876-5.698,5.323-11.602,7.32-17.664H472c4.418,0,8-3.582,8-8v-64C480,203.582,476.418,200,472,200z M16,40
				c0-13.255,10.745-24,24-24h232c13.255,0,24,10.745,24,24v8H16V40z M296,440c0,13.255-10.745,24-24,24H40
				c-13.255,0-24-10.745-24-24v-8h280V440z M296,416H16V64h280v16h-8c-4.418,0-8,3.582-8,8v30.4
				c-6.066,2.011-11.974,4.474-17.672,7.368L240.8,104.256c-3.123-3.118-8.181-3.118-11.304,0l-45.2,45.2
				c-3.118,3.123-3.118,8.181,0,11.304l21.496,21.6c-2.899,5.688-5.37,11.584-7.392,17.64H168c-4.418,0-8,3.582-8,8v64
				c0,4.418,3.582,8,8,8h30.4c2.013,6.066,4.475,11.973,7.368,17.672l-21.496,21.6c-3.118,3.123-3.118,8.181,0,11.304l45.2,45.2
				c3.123,3.118,8.181,3.118,11.304,0l21.6-21.496c5.684,2.875,11.575,5.322,17.624,7.32V392c0,4.418,3.582,8,8,8h8V416z M464,264
				h-28.32c-3.599,0-6.755,2.403-7.712,5.872c-2.455,8.843-5.991,17.35-10.528,25.328c-1.777,3.126-1.25,7.053,1.288,9.6
				l20.048,20.104l-33.904,33.904L384.8,338.736c-2.545-2.541-6.472-3.071-9.6-1.296c-7.974,4.547-16.478,8.094-25.32,10.56
				c-3.461,0.951-5.865,4.091-5.88,7.68V384h-48v-28.32c-0.001-3.601-2.408-6.758-5.88-7.712c-8.84-2.456-17.344-5.992-25.32-10.528
				c-3.128-1.775-7.055-1.245-9.6,1.296l-20.104,20.04l-33.904-33.904l20.08-20.072c2.538-2.547,3.065-6.474,1.288-9.6
				c-4.548-7.977-8.094-16.483-10.56-25.328c-0.954-3.458-4.093-5.858-7.68-5.872H176v-48h28.32c3.599,0,6.755-2.403,7.712-5.872
				c2.455-8.843,5.991-17.35,10.528-25.328c1.777-3.126,1.25-7.053-1.288-9.6l-20.048-20.104l33.904-33.904l20.072,20.072
				c2.545,2.541,6.472,3.071,9.6,1.296c7.974-4.547,16.478-8.094,25.32-10.56c3.461-0.951,5.865-4.091,5.88-7.68V96h48v28.32
				c0.001,3.601,2.408,6.758,5.88,7.712c8.84,2.456,17.344,5.992,25.32,10.528c3.128,1.775,7.055,1.245,9.6-1.296l20.104-20.04
				l33.904,33.904l-20.08,20.072c-2.538,2.547-3.065,6.474-1.288,9.6c4.548,7.977,8.094,16.483,10.56,25.328
				c0.954,3.458,4.093,5.858,7.68,5.872H464V264z"/>
			<path d="M320,168c-6.069,0.012-12.114,0.767-18,2.248c-31.803,8.212-54.017,36.906-54,69.752c0,2.056,0.088,4.088,0.256,6.112
				c2.58,30.475,24.131,55.994,53.744,63.64h0.056c5.867,1.481,11.893,2.236,17.944,2.248c39.765,0,72-32.236,72-72
				C392,200.235,359.765,168,320,168z M296,290.536c-2.405-1.11-4.729-2.391-6.952-3.832c-0.176-0.12-0.328-0.264-0.504-0.384
				c-2.182-1.486-4.257-3.125-6.208-4.904c-0.696-0.632-1.312-1.344-1.968-2.008c-1.344-1.352-2.648-2.736-3.848-4.208
				c-0.672-0.8-1.288-1.728-1.92-2.6c-1.032-1.44-2.008-2.92-2.904-4.456c-0.56-0.96-1.088-1.936-1.6-2.936
				c-0.8-1.6-1.512-3.2-2.16-4.896c-0.4-1.016-0.8-2.016-1.144-3.056c-0.584-1.867-1.07-3.763-1.456-5.68
				c-0.192-0.92-0.456-1.824-0.6-2.76c-0.48-2.914-0.726-5.862-0.736-8.816c0.015-2.948,0.261-5.89,0.736-8.8
				c0.152-0.944,0.416-1.848,0.616-2.776c0.38-1.91,0.863-3.798,1.448-5.656c0.336-1.048,0.752-2.064,1.152-3.08
				c0.64-1.656,1.344-3.28,2.136-4.856c0.512-1.016,1.056-2.016,1.6-2.992c0.88-1.504,1.832-2.952,2.84-4.36
				c0.656-0.912,1.296-1.832,2-2.704c1.144-1.408,2.4-2.72,3.664-4c0.72-0.728,1.4-1.512,2.16-2.2
				c1.74-1.56,3.576-3.011,5.496-4.344c0.424-0.296,0.8-0.656,1.232-0.944c2.213-1.442,4.526-2.725,6.92-3.84V290.536z M320,296
				c-2.678-0.021-5.351-0.23-8-0.624V184.624c2.649-0.394,5.322-0.602,8-0.624c30.928,0,56,25.072,56,56
				C376,270.928,350.928,296,320,296z"/>
		</g>
	</g>
</g>
<g>
</g>
<g>
</g>
<g>
</g>
<g>
</g>
<g>
</g>
<g>
</g>
<g>
</g>
<g>
</g>
<g>
</g>
<g>
</g>
<g>
</g>
<g>
</g>
<g>
</g>
<g>
</g>
<g>
</g>
</svg>
