<?xml version="1.0" encoding="iso-8859-1"?>
<!-- Generator: Adobe Illustrator 19.0.0, SVG Export Plug-In . SVG Version: 6.00 Build 0)  -->
<svg version="1.1" id="Capa_1" xmlns="http://www.w3.org/2000/svg" xmlns:xlink="http://www.w3.org/1999/xlink" x="0px" y="0px"
	 viewBox="0 0 487.245 487.245" style="enable-background:new 0 0 487.245 487.245;" xml:space="preserve">
<g>
	<g>
		<path d="M475.574,68.235l-56.56-56.56c-15.658-15.553-40.934-15.553-56.592,0l-124.448,124.48
			c-15.557,15.656-15.557,40.936,0,56.592l11.304,11.304l-45.224,45.248l-11.32-11.328c-15.651-15.556-40.925-15.556-56.576,0
			L11.654,362.411c-15.538,15.658-15.538,40.918,0,56.576l56.6,56.584c15.653,15.551,40.923,15.551,56.576,0l124.48-124.4
			c15.539-15.661,15.539-40.923,0-56.584l-11.336-11.376l45.24-45.24l11.344,11.344c15.658,15.553,40.934,15.553,56.592,0
			l124.424-124.488C491.135,109.173,491.135,83.89,475.574,68.235z M237.974,339.843L113.518,464.235
			c-9.399,9.333-24.569,9.333-33.968,0l-56.56-56.56c-9.329-9.401-9.329-24.567,0-33.968l124.48-124.4
			c9.399-9.333,24.569-9.333,33.968,0l11.304,11.304l-11.328,11.328c-9.503-9.071-24.457-9.071-33.96,0L45.71,373.715
			c-9.387,9.264-9.486,24.384-0.221,33.771c0.073,0.074,0.147,0.148,0.221,0.221l33.92,33.92c9.37,9.376,24.566,9.38,33.941,0.011
			c0.004-0.004,0.007-0.007,0.011-0.011l101.712-101.824c9.382-9.256,9.484-24.366,0.227-33.748
			c-0.057-0.058-0.114-0.115-0.171-0.172l11.344-11.32l11.28,11.304C247.304,315.271,247.304,330.439,237.974,339.843z
			 M154.555,334.122c9.194,8.446,23.328,8.433,32.507-0.031l16.984-16.92c3.104,3.051,3.147,8.04,0.096,11.144
			c-0.032,0.032-0.064,0.065-0.096,0.096L102.238,430.315c-3.12,3.128-8.186,3.135-11.314,0.014c-0.005-0.005-0.01-0.01-0.014-0.014
			l-33.96-33.944c-3.106-3.048-3.154-8.037-0.106-11.143c0.048-0.049,0.096-0.097,0.146-0.144l101.784-101.856
			c3.12-3.128,8.186-3.135,11.314-0.014c0.005,0.005,0.01,0.01,0.014,0.014l-16.984,16.984
			C144.15,309.972,144.794,325.155,154.555,334.122z M175.75,322.771c-3.173,3.01-8.147,3.01-11.32,0
			c-0.75-0.75-1.342-1.642-1.744-2.624c-0.087-0.337-0.154-0.679-0.2-1.024c-0.36-1.339-0.36-2.749,0-4.088
			c0.042-0.299,0.101-0.595,0.176-0.888c0.402-0.982,0.995-1.874,1.744-2.624L311.55,164.427c3.149-3.001,8.099-3.001,11.248,0
			c3.13,3.068,3.181,8.092,0.113,11.223c-0.037,0.038-0.075,0.076-0.113,0.113L175.75,322.771z M334.42,153.343
			c-3.224-3.286-7.33-5.568-11.823-6.571c-0.288-0.064-0.56-0.192-0.848-0.248c-0.935-0.147-1.878-0.238-2.824-0.272
			c-0.584,0-1.16-0.168-1.752-0.168c-0.592,0-1.128,0.12-1.696,0.16c-0.965,0.037-1.926,0.131-2.88,0.28
			c-0.144,0-0.288,0.096-0.432,0.128c-4.516,0.921-8.664,3.146-11.928,6.4l-16.984,17.048l-0.024-0.032
			c-3.126-3.122-3.129-8.188-0.006-11.314c0.002-0.002,0.004-0.004,0.006-0.006L385.11,56.955c1.467-1.521,3.486-2.387,5.6-2.4
			c2.131,0.006,4.17,0.872,5.656,2.4l33.92,33.92c3.128,3.12,3.135,8.186,0.014,11.314c-0.005,0.005-0.01,0.01-0.014,0.014
			L328.438,204.035c-3.116,3.075-8.124,3.075-11.24,0l16.904-16.968C343.502,177.842,343.645,162.743,334.42,153.343z
			 M464.222,113.555L339.854,237.971c-9.401,9.344-24.583,9.344-33.984,0l-11.304-11.28l11.328-11.352
			c9.26,9.36,24.354,9.441,33.714,0.182c0.061-0.06,0.121-0.121,0.182-0.182l101.84-101.76c9.376-9.37,9.38-24.565,0.011-33.941
			c-0.004-0.004-0.007-0.007-0.011-0.011l-33.88-33.912c-4.472-4.559-10.59-7.127-16.976-7.128
			c-6.382-0.017-12.501,2.538-16.976,7.088l-101.84,101.76c-9.376,9.37-9.38,24.566-0.011,33.941
			c0.004,0.004,0.007,0.007,0.011,0.011l-11.344,11.352l-11.288-11.288c-9.339-9.4-9.339-24.576,0-33.976L373.694,23.011
			c9.401-9.344,24.583-9.344,33.984,0l56.544,56.56C473.552,88.978,473.552,104.149,464.222,113.555z"/>
	</g>
</g>
<g>
</g>
<g>
</g>
<g>
</g>
<g>
</g>
<g>
</g>
<g>
</g>
<g>
</g>
<g>
</g>
<g>
</g>
<g>
</g>
<g>
</g>
<g>
</g>
<g>
</g>
<g>
</g>
<g>
</g>
</svg>
