<?xml version="1.0" encoding="iso-8859-1"?>
<!-- Generator: Adobe Illustrator 19.0.0, SVG Export Plug-In . SVG Version: 6.00 Build 0)  -->
<svg version="1.1" id="Capa_1" xmlns="http://www.w3.org/2000/svg" xmlns:xlink="http://www.w3.org/1999/xlink" x="0px" y="0px"
	 viewBox="0 0 480 480" style="enable-background:new 0 0 480 480;" xml:space="preserve">
<g>
	<g>
		<g>
			<path d="M328,208h-16c-13.255,0-24,10.745-24,24v16c0,13.255,10.745,24,24,24h16c13.255,0,24-10.745,24-24v-16
				C352,218.745,341.255,208,328,208z M336,248c0,4.418-3.582,8-8,8h-16c-4.418,0-8-3.582-8-8v-16c0-4.418,3.582-8,8-8h16
				c4.418,0,8,3.582,8,8V248z"/>
			<path d="M408,32V8c0-4.418-3.582-8-8-8s-8,3.582-8,8v24h-64V8c0-4.418-3.582-8-8-8s-8,3.582-8,8v24h-64V8c0-4.418-3.582-8-8-8
				s-8,3.582-8,8v24h-64V8c0-4.418-3.582-8-8-8s-8,3.582-8,8v24H88V8c0-4.418-3.582-8-8-8s-8,3.582-8,8v24H0v448h480V32H408z
				 M464,464H16V48h56v24c0,4.418,3.582,8,8,8s8-3.582,8-8V48h64v24c0,4.418,3.582,8,8,8s8-3.582,8-8V48h64v24c0,4.418,3.582,8,8,8
				s8-3.582,8-8V48h64v24c0,4.418,3.582,8,8,8s8-3.582,8-8V48h64v24c0,4.418,3.582,8,8,8s8-3.582,8-8V48h56V464z"/>
			<path d="M240,144c-4.418,0-8,3.582-8,8v16c0,4.418,3.582,8,8,8s8-3.582,8-8v-16C248,147.582,244.418,144,240,144z"/>
			<path d="M400,144c-4.418,0-8,3.582-8,8v16c0,4.418,3.582,8,8,8s8-3.582,8-8v-16C408,147.582,404.418,144,400,144z"/>
			<path d="M320,176c4.418,0,8-3.582,8-8v-16c0-4.418-3.582-8-8-8s-8,3.582-8,8v16C312,172.418,315.582,176,320,176z"/>
			<path d="M160,144c-4.418,0-8,3.582-8,8v16c0,4.418,3.582,8,8,8s8-3.582,8-8v-16C168,147.582,164.418,144,160,144z"/>
			<path d="M80,144c-4.418,0-8,3.582-8,8v16c0,4.418,3.582,8,8,8s8-3.582,8-8v-16C88,147.582,84.418,144,80,144z"/>
			<path d="M160,224c-4.418,0-8,3.582-8,8v16c0,4.418,3.582,8,8,8s8-3.582,8-8v-16C168,227.582,164.418,224,160,224z"/>
			<path d="M80,224c-4.418,0-8,3.582-8,8v16c0,4.418,3.582,8,8,8s8-3.582,8-8v-16C88,227.582,84.418,224,80,224z"/>
			<path d="M160,304c-4.418,0-8,3.582-8,8v16c0,4.418,3.582,8,8,8s8-3.582,8-8v-16C168,307.582,164.418,304,160,304z"/>
			<path d="M80,304c-4.418,0-8,3.582-8,8v16c0,4.418,3.582,8,8,8s8-3.582,8-8v-16C88,307.582,84.418,304,80,304z"/>
			<path d="M160,384c-4.418,0-8,3.582-8,8v16c0,4.418,3.582,8,8,8s8-3.582,8-8v-16C168,387.582,164.418,384,160,384z"/>
			<path d="M80,384c-4.418,0-8,3.582-8,8v16c0,4.418,3.582,8,8,8s8-3.582,8-8v-16C88,387.582,84.418,384,80,384z"/>
			<path d="M400,304c-4.418,0-8,3.582-8,8v16c0,4.418,3.582,8,8,8s8-3.582,8-8v-16C408,307.582,404.418,304,400,304z"/>
			<path d="M320,304c-4.418,0-8,3.582-8,8v16c0,4.418,3.582,8,8,8s8-3.582,8-8v-16C328,307.582,324.418,304,320,304z"/>
			<path d="M400,384c-4.418,0-8,3.582-8,8v16c0,4.418,3.582,8,8,8s8-3.582,8-8v-16C408,387.582,404.418,384,400,384z"/>
			<path d="M320,384c-4.418,0-8,3.582-8,8v16c0,4.418,3.582,8,8,8s8-3.582,8-8v-16C328,387.582,324.418,384,320,384z"/>
			<path d="M400,224c-4.418,0-8,3.582-8,8v16c0,4.418,3.582,8,8,8s8-3.582,8-8v-16C408,227.582,404.418,224,400,224z"/>
			<path d="M240,224c-4.418,0-8,3.582-8,8v16c0,4.418,3.582,8,8,8s8-3.582,8-8v-16C248,227.582,244.418,224,240,224z"/>
			<path d="M240,304c-4.418,0-8,3.582-8,8v16c0,4.418,3.582,8,8,8s8-3.582,8-8v-16C248,307.582,244.418,304,240,304z"/>
			<path d="M240,384c-4.418,0-8,3.582-8,8v16c0,4.418,3.582,8,8,8s8-3.582,8-8v-16C248,387.582,244.418,384,240,384z"/>
		</g>
	</g>
</g>
<g>
</g>
<g>
</g>
<g>
</g>
<g>
</g>
<g>
</g>
<g>
</g>
<g>
</g>
<g>
</g>
<g>
</g>
<g>
</g>
<g>
</g>
<g>
</g>
<g>
</g>
<g>
</g>
<g>
</g>
</svg>
