<?xml version="1.0" encoding="iso-8859-1"?>
<!-- Generator: Adobe Illustrator 19.0.0, SVG Export Plug-In . SVG Version: 6.00 Build 0)  -->
<svg version="1.1" id="Capa_1" xmlns="http://www.w3.org/2000/svg" xmlns:xlink="http://www.w3.org/1999/xlink" x="0px" y="0px"
	 viewBox="0 0 480 480" style="enable-background:new 0 0 480 480;" xml:space="preserve">
<g>
	<g>
		<g>
			<path d="M472,0H8C3.582,0,0,3.582,0,8v464c0,4.418,3.582,8,8,8h464c4.418,0,8-3.582,8-8V8C480,3.582,476.418,0,472,0z M464,464
				H16V96h448V464z M464,80H16V16h448V80z"/>
			<circle cx="384" cy="48" r="16"/>
			<circle cx="432" cy="48" r="16"/>
			<circle cx="336" cy="48" r="16"/>
			<path d="M324.52,199.832L404.688,280l-80.168,80.168c-3.123,3.124-3.123,8.188,0,11.312c3.124,3.123,8.188,3.123,11.312,0
				l85.824-85.824c3.123-3.124,3.123-8.188,0-11.312l-85.824-85.824c-3.07-3.178-8.134-3.266-11.312-0.196
				c-3.178,3.07-3.266,8.134-0.196,11.312C324.388,199.702,324.453,199.768,324.52,199.832z"/>
			<path d="M144.168,371.48c3.069,3.178,8.134,3.266,11.312,0.196c3.178-3.07,3.266-8.134,0.196-11.312
				c-0.064-0.067-0.13-0.132-0.196-0.196L75.312,280l80.168-80.168c3.178-3.069,3.266-8.134,0.197-11.312
				c-3.069-3.178-8.134-3.266-11.312-0.197c-0.067,0.064-0.132,0.13-0.197,0.197l-85.824,85.824c-3.123,3.124-3.123,8.188,0,11.312
				L144.168,371.48z"/>
			<path d="M208.654,426.823c0.001,0,0.001,0,0.002,0c0.679,0.18,1.378,0.272,2.08,0.272c3.618-0.003,6.783-2.434,7.72-5.928
				L293,142.976c1.144-4.268-1.388-8.656-5.656-9.8c-4.268-1.144-8.656,1.388-9.8,5.656L203,417.024
				C201.855,421.291,204.387,425.679,208.654,426.823z"/>
		</g>
	</g>
</g>
<g>
</g>
<g>
</g>
<g>
</g>
<g>
</g>
<g>
</g>
<g>
</g>
<g>
</g>
<g>
</g>
<g>
</g>
<g>
</g>
<g>
</g>
<g>
</g>
<g>
</g>
<g>
</g>
<g>
</g>
</svg>
